# xmcd
#
# Track frame offsets: 
#        182
#        14667
#        29682
#        42547
#        57942
#        71377
#        91452
#        114112
#        126450
#        148562
#        158817
#        175707
#        194457
#
# Disc length: 3262 seconds
#
# Revision: 2
# Processed by: cddbd v1.5.1PL2 Copyright (c) Steve Scherf et al.
# Submitted via: ExactAudioCopy v0.90b4
#
DISCID=b80cbc0d
DTITLE=Kasey Chambers - Barricades and Brickwalls
DYEAR=2001
DGENRE=Rock
TTITLE0=Barricades and Brickwalls
TTITLE1=Not Pretty Enough
TTITLE2=On A Bad Day
TTITLE3=Runaway Train
TTITLE4=A Little Bit Lonesome
TTITLE5=Nullarbor Song
TTITLE6=A Million Tears
TTITLE7=Still Feeling Blue
TTITLE8=This Mountain
TTITLE9=Crossfire
TTITLE10=Falling Into You
TTITLE11=If I Were You
TTITLE12=I Still Pray (feat. Paul Kelly) and Ignorance
EXTD=YEAR: 2001
EXTT0=
EXTT1=
EXTT2=
EXTT3=
EXTT4=
EXTT5=
EXTT6=
EXTT7=
EXTT8=
EXTT9=
EXTT10=
EXTT11=
EXTT12=
PLAYORDER=
